<?xml version="1.0" standalone="no"?>
<!DOCTYPE svg PUBLIC "-//W3C//DTD SVG 20010904//EN"
 "http://www.w3.org/TR/2001/REC-SVG-20010904/DTD/svg10.dtd">
<svg version="1.0" xmlns="http://www.w3.org/2000/svg"
 width="350.000000pt" height="75.000000pt" viewBox="0 0 350.000000 75.000000"
 preserveAspectRatio="xMidYMid meet">

<g transform="translate(0.000000,75.000000) scale(0.100000,-0.100000)"
fill="#000000" stroke="none">
<path d="M1120 591 c-58 -4 -97 -9 -87 -13 15 -7 17 -25 17 -177 0 -151 -2
-171 -17 -180 -13 -8 12 -10 90 -11 l108 0 15 35 c19 47 18 48 -15 14 -26 -25
-37 -29 -85 -29 l-56 0 0 80 0 80 50 0 c36 0 52 -5 59 -17 8 -14 10 -8 10 27
-1 25 -3 37 -6 28 -4 -14 -15 -18 -59 -18 l-54 0 0 80 0 80 64 0 c42 0 66 -4
69 -12 3 -7 6 -1 6 15 1 15 0 26 -1 25 -2 -1 -50 -4 -108 -7z"/>
<path d="M688 575 c21 -16 22 -22 22 -175 0 -153 -1 -159 -22 -174 -21 -15
-20 -16 37 -16 57 0 58 1 37 16 -21 15 -22 21 -22 180 l0 164 49 0 c60 0 81
-22 81 -86 0 -46 -18 -68 -67 -81 l-32 -8 106 -118 c114 -128 158 -158 225
-156 41 1 42 1 12 9 -54 12 -99 47 -193 149 -50 54 -91 101 -91 104 0 3 11 8
25 11 54 14 73 114 31 163 -23 27 -29 28 -123 31 -93 3 -97 3 -75 -13z"/>
<path d="M1307 578 c16 -8 36 -51 82 -180 34 -93 61 -175 62 -181 0 -7 23 58
51 143 l50 155 54 -149 c54 -152 64 -173 64 -141 0 10 23 89 50 176 37 115 57
163 73 174 21 14 19 15 -27 15 -41 0 -47 -2 -36 -14 9 -12 5 -38 -20 -128 -18
-62 -36 -119 -40 -127 -4 -8 -26 41 -56 128 -27 77 -52 141 -55 141 -3 0 -25
-62 -49 -137 -23 -76 -45 -142 -48 -148 -7 -11 -81 220 -82 252 0 12 6 24 13
26 6 3 -15 5 -48 6 -49 0 -56 -2 -38 -11z"/>
<path d="M1870 570 c18 -18 20 -33 20 -170 0 -137 -2 -152 -20 -170 l-20 -20
57 0 c55 0 56 1 35 16 -21 15 -22 21 -22 180 0 161 0 165 23 174 17 7 9 9 -35
9 l-58 1 20 -20z"/>
<path d="M2060 418 c0 -171 -1 -177 -22 -192 -22 -15 -20 -16 32 -16 52 0 54
1 32 16 -21 14 -22 22 -22 150 0 75 4 134 8 132 4 -1 70 -69 146 -150 76 -82
139 -148 140 -148 0 0 -1 78 -2 174 -4 172 -4 174 19 190 23 16 22 16 -31 15
-43 0 -50 -2 -32 -9 21 -9 22 -13 22 -152 l0 -142 -97 104 c-54 58 -119 128
-145 155 l-48 50 0 -177z"/>
<path d="M2488 580 c22 -9 22 -13 22 -174 0 -159 -1 -165 -22 -181 -22 -16
-16 -17 100 -12 108 5 127 8 166 31 112 65 115 240 5 313 -40 27 -49 28 -168
30 -88 2 -119 0 -103 -7z m240 -30 c67 -41 91 -154 51 -237 -29 -60 -76 -83
-169 -83 l-70 0 0 170 0 170 78 0 c60 0 84 -5 110 -20z"/>
</g>
</svg>
